<?xml version="1.0" encoding="utf-8"?>
<!-- Generator: Adobe Illustrator 25.2.3, SVG Export Plug-In . SVG Version: 6.00 Build 0)  -->
<svg version="1.1" id="Ebene_1" xmlns="http://www.w3.org/2000/svg" xmlns:xlink="http://www.w3.org/1999/xlink" x="0px" y="0px"
	 viewBox="0 0 292.5 139.5" style="enable-background:new 0 0 292.5 139.5;" xml:space="preserve">
<style type="text/css">
	.st0{fill:#909090;}
	.st1{fill-rule:evenodd;clip-rule:evenodd;fill:#3A61A0;}
	.st2{fill:#3A61A0;}
</style>
<g id="Ebene_4">
	<path class="st0" d="M7.1,98.1h3.4v12h0.1c1.3-2.3,3.8-3.6,6.5-3.5c4.8,0,8.1,3.9,8.1,9.7c0,6.8-4.3,10.2-8.6,10.2
		c-2.6,0.1-5.1-1.2-6.4-3.6h-0.1l-0.2,3.1H6.9c0.1-1.3,0.2-3.2,0.2-4.9L7.1,98.1z M10.5,118.4c0,0.4,0,0.8,0.2,1.3
		c0.6,2.4,2.7,4.1,5.2,4.1c3.7,0,5.8-2.9,5.8-7.3c0-3.8-2-7.1-5.7-7.1c-2.5,0.1-4.6,1.8-5.2,4.2c-0.1,0.5-0.2,1-0.2,1.5L10.5,118.4z
		"/>
	<path class="st0" d="M32.7,117.2c0.1,4.7,3,6.6,6.5,6.6c1.8,0.1,3.6-0.3,5.3-1l0.6,2.5c-2,0.9-4.2,1.3-6.4,1.2
		c-5.9,0-9.4-3.9-9.4-9.6s3.4-10.2,8.9-10.2c6.2,0,7.9,5.4,7.9,8.9c0,0.5,0,1.1-0.1,1.6L32.7,117.2z M42.9,114.7
		c0-2.2-0.9-5.6-4.8-5.6c-3.5,0-5,3.2-5.3,5.6H42.9z"/>
	<path class="st0" d="M61.5,113c0-2.2,0-4.2-0.2-5.9h3l0.2,3.8h0.1c0.7-2.4,2.9-4.1,5.4-4.2c0.3,0,0.6,0,0.9,0.1v3.3
		c-0.4-0.1-0.8-0.1-1.2-0.1c-2.4,0-4.2,1.8-4.6,4.4c-0.1,0.5-0.1,1.1-0.1,1.6v10.2h-3.5V113z"/>
	<path class="st0" d="M77.2,117.2c0.1,4.7,3,6.6,6.5,6.6c1.8,0.1,3.6-0.3,5.3-1l0.6,2.5c-2,0.9-4.2,1.3-6.4,1.2
		c-5.9,0-9.4-3.9-9.4-9.6s3.4-10.2,8.9-10.2c6.2,0,7.9,5.4,7.9,8.9c0,0.5,0,1.1-0.1,1.6L77.2,117.2z M87.4,114.7
		c0-2.2-0.9-5.6-4.8-5.6c-3.5,0-5,3.2-5.3,5.6H87.4z"/>
	<path class="st0" d="M109.9,125.4c-1.7,0.7-3.6,1.1-5.5,1.1c-5.7,0-9.5-3.9-9.5-9.7s4-10.2,10.2-10.2c1.7,0,3.3,0.3,4.8,1l-0.8,2.6
		c-1.2-0.6-2.6-0.9-4-0.9c-4.4,0-6.7,3.3-6.7,7.2c0,4.4,2.8,7.1,6.6,7.1c1.5,0,2.9-0.3,4.2-0.9L109.9,125.4z"/>
	<path class="st0" d="M132.3,116.4c0,7-4.9,10.1-9.5,10.1c-5.1,0-9.1-3.8-9.1-9.8c0-6.3,4.2-10.1,9.4-10.1
		C128.6,106.6,132.3,110.6,132.3,116.4z M117.2,116.6c0,4.2,2.4,7.3,5.7,7.3s5.8-3.1,5.8-7.4c0-3.2-1.6-7.3-5.7-7.3
		S117.2,113,117.2,116.6z"/>
	<path class="st0" d="M154.3,123.3c0,4.4-0.9,7-2.7,8.7c-2,1.6-4.5,2.4-7,2.3c-2.2,0.1-4.4-0.5-6.3-1.6l0.9-2.7
		c1.7,1,3.6,1.6,5.6,1.5c3.5,0,6.1-1.9,6.1-6.7v-2.1h-0.1c-1.3,2.1-3.6,3.3-6.1,3.2c-4.7,0-8.1-4-8.1-9.3c0-6.4,4.2-10.1,8.6-10.1
		c2.4-0.1,4.8,1.1,5.9,3.3h0.1l0.1-2.9h3.1c-0.1,1.3-0.2,2.9-0.2,5.2L154.3,123.3z M150.8,114.6c0-0.5,0-1-0.2-1.5
		c-0.6-2.2-2.6-3.7-4.8-3.7c-3.3,0-5.7,2.8-5.7,7.2c0,3.7,1.9,6.8,5.6,6.8c2.2,0,4.2-1.4,4.8-3.5c0.2-0.6,0.3-1.2,0.3-1.8
		L150.8,114.6z"/>
	<path class="st0" d="M161.1,112.2c0-2,0-3.6-0.2-5.2h3.1l0.2,3.2h0.1c1.3-2.2,3.7-3.6,6.3-3.5c2.6,0,6.7,1.6,6.7,8.1v11.3h-3.5v-11
		c0-3.1-1.1-5.6-4.4-5.6c-2.8,0.1-4.9,2.4-4.9,5.2V126h-3.5L161.1,112.2z"/>
	<path class="st0" d="M188.1,101.7c0,1.1-0.9,2.1-2,2.1c-0.1,0-0.1,0-0.2,0c-1.1,0-2-0.8-2.1-1.9c0-0.1,0-0.1,0-0.2
		c0-1.2,0.9-2.1,2.1-2.2c0,0,0.1,0,0.1,0C187.1,99.5,188.1,100.4,188.1,101.7C188.1,101.6,188.1,101.6,188.1,101.7z M184.2,126.1
		V107h3.5v19L184.2,126.1z"/>
	<path class="st0" d="M192.6,124.1l8.6-11.2c0.9-1.1,1.6-2,2.5-3v-0.1h-10.3V107h14.5v2.2l-8.5,11.1c-0.8,1.1-1.6,2-2.4,3v0.1H208
		v2.8h-15.4V124.1z"/>
	<path class="st0" d="M214.6,117.2c0.1,4.7,3,6.6,6.5,6.6c1.8,0.1,3.6-0.3,5.3-1l0.6,2.5c-2,0.9-4.2,1.3-6.4,1.2
		c-5.9,0-9.4-3.9-9.4-9.6s3.4-10.2,8.9-10.2c6.2,0,7.9,5.4,7.9,8.9c0,0.5,0,1.1-0.1,1.6L214.6,117.2z M224.8,114.7
		c0-2.2-0.9-5.6-4.8-5.6c-3.5,0-5,3.2-5.3,5.6H224.8z"/>
	<path class="st0" d="M250.1,98.1v23c0,1.7,0.1,3.6,0.2,4.9h-3.1l-0.2-3.3h-0.1c-1.2,2.4-3.7,3.9-6.4,3.7c-4.6,0-8.2-3.9-8.2-9.7
		c0-6.3,3.9-10.2,8.5-10.2c2.3-0.1,4.5,1,5.7,2.9h0.1V98.1H250.1z M246.7,114.8c0-0.5,0-1-0.2-1.5c-0.5-2.3-2.6-4-5-4
		c-3.6,0-5.7,3.2-5.7,7.3c0,3.9,1.9,7,5.6,7c2.4,0,4.5-1.7,5.1-4.1c0.1-0.5,0.2-1,0.2-1.5L246.7,114.8z"/>
	<path class="st1" d="M282.5,33.8c-0.4-0.8-0.8-1.7-1-2.5c-0.2-0.9-0.4-1.7-0.5-2.4s-0.2-1.1-0.2-1.4c0-0.4-0.1-0.9-0.3-1.3
		c-0.2-0.7-0.6-1.3-1.2-1.7c-0.2-0.2-0.4-0.3-0.6-0.4c0.4-0.2,0.9-0.4,1.3-0.7c0.6-0.3,1.1-0.8,1.5-1.4c0.5-0.7,0.7-1.6,0.7-2.5
		c0-0.6-0.1-1.1-0.3-1.7c-0.2-0.5-0.5-1-0.8-1.5c-0.5-0.6-1.1-1.1-1.8-1.4c-1.1-0.4-2.2-0.6-3.4-0.6h-0.9h-7.8v19.4h4.7v-8.2h0.8
		c0.4,0,0.9,0,1.3,0.1c0.4,0,0.9,0.2,1.2,0.5c0.3,0.2,0.5,0.6,0.6,0.9c0.1,0.4,0.2,0.9,0.3,1.6c0.1,0.9,0.3,1.7,0.4,2.6
		c0.1,0.9,0.4,1.7,0.8,2.5L282.5,33.8z M271.8,21.9v-4h2.9c0.5,0,1.1,0.1,1.6,0.2c0.4,0.1,0.7,0.4,0.9,0.7c0.1,0.2,0.2,0.4,0.2,0.6
		c0,0.1,0,0.3,0,0.4c0,0.2,0,0.5-0.1,0.7c0,0.1-0.1,0.3-0.2,0.4c-0.2,0.5-0.6,0.8-1.1,0.9c-0.7,0.1-1.4,0.2-2.1,0.1L271.8,21.9z
		 M289.3,24.3c0-1.6-0.2-3.3-0.7-4.8c-0.5-1.6-1.2-3-2.2-4.3c-1.4-1.9-3.3-3.5-5.4-4.5c-2.1-1-4.4-1.6-6.8-1.6c-1.9,0-3.8,0.3-5.5,1
		c-1.4,0.5-2.7,1.3-3.9,2.2c-0.8,0.7-1.6,1.4-2.3,2.2c-0.9,1.1-1.6,2.3-2.2,3.5c-1.6,3.8-1.7,8.1-0.2,11.9c0.6,1.5,1.4,2.8,2.4,4
		c0.7,0.9,1.5,1.6,2.4,2.3c1.3,1,2.8,1.8,4.4,2.3c4,1.3,8.4,1,12.1-1c1.6-0.9,3.1-2.1,4.3-3.6c1.4-1.6,2.4-3.5,3-5.6
		C289.1,27.1,289.3,25.7,289.3,24.3L289.3,24.3z M288,24.3c0,2.8-0.9,5.6-2.5,7.9c-1.6,2.3-3.9,4.1-6.6,5c-0.9,0.3-1.8,0.5-2.8,0.7
		c-0.6,0.1-1.2,0.1-1.9,0.1c-2.7,0-5.4-0.8-7.7-2.3c-3.8-2.6-6.1-6.9-6.1-11.5c0-4.4,2.1-8.5,5.7-11.1c1.4-1.1,3-1.8,4.8-2.2
		c1.1-0.3,2.2-0.4,3.4-0.4c1.8,0,3.6,0.3,5.3,1c1.3,0.6,2.6,1.3,3.6,2.3c0.8,0.7,1.5,1.5,2.1,2.3c1.1,1.5,1.8,3.1,2.3,4.9
		C287.8,22,288,23.1,288,24.3L288,24.3z"/>
	<path class="st2" d="M7.6,9.1H27c15,0,25.2,4.8,25.2,18.1c0,9.9-5.8,14.8-14.8,17.1v0.2c9.8,0.8,16.7,7.2,16.7,17.3
		C54.2,77.3,41.4,81,26.8,81H7.6V9.1z M17.9,39.8h5.7c10,0,18.5-0.9,18.5-11.5c0-8.5-7.3-10.7-13.3-10.7H17.9V39.8z M17.9,72.6h7.7
		c9.3,0,17.6-2,17.6-11.7c0-11.1-9.8-12.7-18.7-12.7h-6.7L17.9,72.6z"/>
	<path class="st2" d="M76.1,18.8h-9.7V9.1h9.7V18.8z M66.3,28.5H76V81h-9.7V28.5z"/>
	<path class="st2" d="M113.9,27.2c16,0,26.7,11.5,26.7,27.5c0,15-10.9,27.5-26.7,27.5S87.1,69.8,87.1,54.7
		C87.1,38.8,97.9,27.2,113.9,27.2z M113.9,74.4c11.3,0,16.4-10.3,16.4-19.7c0-10-6.1-19.7-16.4-19.7s-16.5,9.7-16.5,19.7
		C97.4,64.1,102.5,74.4,113.9,74.4z"/>
	<path class="st0" d="M149.9,9.1h19.2V81h-19.2V9.1z"/>
	<path class="st0" d="M181.9,9.1H208c25,0,42.6,7.8,42.6,35.7c0,26.9-18,36.3-42.6,36.3h-26.1V9.1z M201,66.8h7.4
		c14.3,0,22.4-7.4,22.4-21.8s-8.4-21.8-22.4-21.8H201V66.8z"/>
</g>
</svg>
