<svg enable-background="new 0 0 798.7 236" viewBox="0 0 798.7 236" xmlns="http://www.w3.org/2000/svg"><g fill="#11141e"><path d="m783.8 30.5c-8.3 0-15-6.7-15-15s6.7-15 15-15 15 6.7 15 15-6.7 15-15 15zm0-28.6c-7.5 0-13.6 6.1-13.6 13.6s6.1 13.6 13.6 13.6 13.6-6.1 13.6-13.6-6.1-13.6-13.6-13.6z"/><path d="m156.2 133.3c8.7 10.9 13.1 23.3 13.1 37.1 0 11.8-3.1 22.5-9.2 31.9-6.1 9.5-15 16.9-26.6 22.4s-25.1 8.2-40.5 8.2h-93v-232.4h88.6c15.8 0 29.4 2.7 40.8 8s20 12.5 25.8 21.6 8.7 19.1 8.7 30.3c0 13.4-3.6 24.5-10.7 33.5-7.1 8.9-16.7 15.5-28.8 19.7 12.5 2.2 23.1 8.7 31.8 19.7zm-118.1-35.1h47.2c12.5 0 22.2-2.8 29.3-8.5 7-5.7 10.5-13.9 10.5-24.6s-3.5-18.7-10.5-24.6-16.8-8.9-29.3-8.9h-47.2zm82 94.3c7.4-6.2 11-14.9 11-26.1s-3.9-20.4-11.7-27.1-18.2-10-31.1-10h-50.2v72.6h51.5c13 0 23.1-3.2 30.5-9.4z"/><path d="m252.3 68.1v164.8h-38.1v-164.8z"/><circle cx="233.2" cy="19.5" r="19.6"/><path d="m331.8 224.1c-14-7.9-25.1-19.1-33.1-33.4-8-14.4-12-31.1-12-50s4.1-35.3 12.4-49.8c8.2-14.5 19.5-25.6 33.8-33.5 14.3-7.8 30.2-11.7 47.8-11.7s33.6 3.9 47.8 11.7c14.3 7.8 25.5 19 33.8 33.5 8.2 14.5 12.4 31.1 12.4 49.8s-4.2 35.4-12.7 49.8c-8.5 14.5-20 25.7-34.6 33.6-14.7 7.9-30.8 11.9-48.4 11.9s-33.1-4-47.2-11.9zm74.8-28.3c8.6-4.7 15.5-11.7 20.9-21.1s8-20.7 8-34.1-2.6-24.7-7.7-33.9-11.9-16.2-20.4-20.9-17.6-7-27.4-7-18.9 2.3-27.3 7-15 11.7-19.9 20.9c-4.9 9.3-7.4 20.6-7.4 33.9 0 19.9 5.1 35.2 15.2 46s22.9 16.2 38.3 16.2c9.9 0 19.1-2.3 27.7-7z"/></g><path d="m547.1.5v232.5h-38.1v-232.5z" fill="#5e7ab0"/><path d="m740.3 14.7c18.6 9.5 33 23.1 43.2 40.8 10.1 17.7 15.2 38.4 15.2 62.1s-5.1 44.2-15.2 61.6c-10.2 17.4-24.5 30.7-43.2 40-18.6 9.3-40.3 13.9-65.1 13.9h-75.9v-232.6h75.9c24.8 0 46.5 4.7 65.1 14.2zm-2.5 165.1c14.5-14.7 21.7-35.5 21.7-62.2s-7.2-48.1-21.7-63.2c-14.5-15.2-35.3-22.8-62.5-22.8h-37.8v170.3h37.8c27.2-.1 48-7.4 62.5-22.1z" fill="#5e7ab0"/><path d="m786.5 24.2-3.8-6.8h-1v6.8h-4.4v-18h7.4c1.4 0 2.6.2 3.6.7s1.8 1.2 2.2 2 .8 1.8.8 2.9c0 1.2-.3 2.3-1 3.2s-1.7 1.6-3 2l4.2 7.1zm-4.8-9.9h2.7c.8 0 1.4-.2 1.8-.6s.6-.9.6-1.7-.2-1.2-.6-1.6-1-.6-1.8-.6h-2.7z" fill="#1d1d1b"/></svg>