<?xml version="1.0" encoding="utf-8"?>
<!-- Generator: Adobe Illustrator 25.0.0, SVG Export Plug-In . SVG Version: 6.00 Build 0)  -->
<svg version="1.1" id="Layer_1" xmlns="http://www.w3.org/2000/svg" xmlns:xlink="http://www.w3.org/1999/xlink" x="0px" y="0px"
	 viewBox="0 0 460 500" style="enable-background:new 0 0 460 500;" xml:space="preserve">
<style type="text/css">
	.st0{fill:#4E91EF;}
	.st1{fill:#3563A2;}
	.st2{fill:#C6C6C6;}
	.st3{fill:#A3A3A3;}
	.st4{fill:#FFFFFF;}
	.st5{fill:#757575;}
	.st6{fill:#A8A8A8;}
	.st7{fill:#B9B9BA;}
	.st8{fill:#FCBC56;}
	.st9{fill:#E8AA58;}
	.st10{fill:#203C62;}
	.st11{fill:#2D5389;}
</style>
<g>
	<g>
		<g>
			<path class="st0" d="M295.3,333.3l-8.6-34.9c-1.4-5.7,1.1-11.5,6.1-14.7c26.1-16.6,46.5-43.3,57.2-75.3c2.6,0.8,5.3,1.3,8.2,1.3
				c17.7,0,32.1-17.6,32.1-39.3S375.8,131,358.1,131c-0.7,0-1.4,0-2.1,0.1C345,63.6,292.7,12.4,229.7,12.4S114.5,63.6,103.5,131.1
				c-0.7-0.1-1.4-0.1-2.1-0.1c-17.7,0-32.1,17.6-32.1,39.3s14.4,39.3,32.1,39.3c2.8,0,5.6-0.5,8.2-1.3
				c10.7,32.1,31.1,58.7,57.2,75.3c5,3.2,7.5,9,6.1,14.7l-8.6,34.9c-1.2,4.8-5,8.6-9.8,9.9C67.1,365.8,3.7,426.3,0.2,498.1h459
				c-3.5-71.9-66.9-132.4-154.2-154.9C300.2,342,296.4,338.2,295.3,333.3z"/>
		</g>
		<g>
			<path class="st1" d="M459.2,498.1h-231V12.4h1.5c62.9,0,115.3,51.1,126.2,118.6c0.7-0.1,1.4-0.1,2.1-0.1
				c17.7,0,32.1,17.6,32.1,39.4c0,21.7-14.4,39.3-32.1,39.3c-2.8,0-5.6-0.5-8.2-1.3c-10.7,32.1-31.1,58.7-57.2,75.4
				c-5,3.2-7.6,9-6.1,14.7l8.6,34.9c1.2,4.8,5,8.6,9.8,9.9C392.4,365.8,455.7,426.3,459.2,498.1z"/>
		</g>
	</g>
	<g>
		<g>
			<polygon class="st5" points="289,433.1 289,313.6 370,298 451.7,313.6 451.7,433.1 370.1,490 			"/>
			<path class="st6" d="M370,304.6l75.1,14.4v110.7L370.1,482l-74.6-52.3V319L370,304.6 M370,291.3l-2.5,0.5l-74.5,14.4l-10.6,2V319
				v110.7v6.8l5.5,3.9l74.6,52.3l7.5,5.2l7.5-5.2l75.1-52.3l5.6-3.9v-6.8V319v-10.8l-10.6-2l-75.1-14.4L370,291.3L370,291.3z"/>
		</g>
		<polygon class="st3" points="434.9,330.7 434.9,422.4 370.7,465.4 370.7,319 		"/>
		<polygon class="st7" points="306.8,330.7 306.8,422.4 370.7,465.4 370.7,319 		"/>
		<path class="st0" d="M370.7,343.5c-30.1-20.3-65.3,14.5-36,41.1l36,32.6V343.5z"/>
		<path class="st1" d="M370.4,343.5c30.1-20.3,65.3,14.5,36,41.1l-36,32.6V343.5z"/>
	</g>
</g>
</svg>
