<?xml version="1.0" encoding="UTF-8"?>
<svg id="Layer_1" data-name="Layer 1" xmlns="http://www.w3.org/2000/svg" viewBox="0 0 800 800">
  <defs>
    <style>
      .cls-1 {
        fill: #8093bf;
      }

      .cls-2 {
        fill: #23324e;
      }
    </style>
  </defs>
  <path class="cls-1" d="M599.35,492.31l-2.47,2.47-2.47-2.47c-124.9-124.9-279.69,29.89-154.79,154.79l151.61,151.61c1.77,1.77,4.62,1.79,6.42,.05l156.49-151.66c124.9-124.9-29.89-279.69-154.79-154.79Z"/>
  <path class="cls-2" d="M11.96,798.73c-2.22,0-4.46-.63-6.44-1.96-5.38-3.59-6.86-10.88-3.29-16.3,61.43-93.29,140.51-160.87,228.67-195.44,12.62-4.92,22.48-20.68,25.12-40.14l5.2-38.62c-49.9-36.71-84.97-95.72-96.99-163.47-.16,0-.32,0-.48,0-25.25,0-45.79-23.4-45.79-52.17s20.54-52.21,45.79-52.21c.16,0,.32,0,.47,0,20.77-117.32,109.31-202.11,211.67-202.11s190.91,84.79,211.68,202.13c24.78,.62,44.77,23.8,44.77,52.2s-19.99,51.54-44.77,52.16c-12.26,69.27-48.46,129.11-100.1,165.7l4.91,36.41c2.64,19.46,12.5,35.21,25.1,40.12,88.19,34.58,167.26,102.16,228.69,195.45,3.57,5.41,2.09,12.71-3.29,16.3-5.38,3.59-12.64,2.11-16.2-3.31-58.75-89.22-134.02-153.72-217.67-186.52-20.7-8.07-35.96-30.63-39.8-58.87l-6.88-51,6.18-4.06c50.31-33.08,85.51-90.47,96.57-157.47,1.69-10,10.48-16.98,20.47-16.31,.33,.02,.68,.05,1,.05,12.35,0,22.41-12.85,22.41-28.66s-10.68-29.54-23.4-28.64c-10,.67-18.79-6.31-20.47-16.27-17.77-107.73-97.34-185.89-189.2-185.89s-171.43,78.18-189.19,185.89c-1.72,10.27-10.91,17.3-21.37,16.29-.5-.04-1.03-.07-1.58-.07-12.35,0-22.41,12.87-22.41,28.69,0,16.51,11.11,29.7,24.04,28.58,10.42-.96,19.6,6.03,21.31,16.27,10.83,65.58,44.96,122.27,93.63,155.57l5.98,4.09-7.13,52.92c-3.84,28.25-19.1,50.82-39.82,58.89-83.62,32.79-158.89,97.29-217.65,186.51-2.25,3.42-5.97,5.27-9.76,5.27ZM167.48,342.63s-.02,0-.03,0c0,0,.02,0,.03,0Zm-.08-104.06s.02,0,.03,0c0,0-.02,0-.03,0Z"/>
  <path class="cls-2" d="M364.85,800.7H169.78c-5.46,0-9.88-4.42-9.88-9.88s4.42-9.88,9.88-9.88h195.07c5.46,0,9.88,4.42,9.88,9.88s-4.42,9.88-9.88,9.88Z"/>
</svg>