<?xml version="1.0" encoding="UTF-8"?>
<svg id="Layer_1" data-name="Layer 1" xmlns="http://www.w3.org/2000/svg" viewBox="0 0 800 800">
  <defs>
    <style>
      .cls-1 {
        fill: #8093bf;
      }

      .cls-2 {
        fill: #23324e;
      }
    </style>
  </defs>
  <path class="cls-1" d="M291.41,586.81c-8.93-3.45-15.54-13.7-17.22-26.1l-2.21-16.24c-.55-4.02,1.11-8.03,4.36-10.45,24.8-18.44,42.83-48.38,48.67-83.49,.34-2.07,2.18-3.58,4.31-3.44,.31,.02,.63,.03,.95,.03,9.99,0,18.08-9.54,18.08-21.31s-8.1-21.31-18.08-21.31c-.32,0-.63,.01-.95,.03-2.13,.14-3.97-1.36-4.31-3.44-9.77-58.79-53.71-103.16-106.45-103.16s-96.7,44.38-106.46,103.19c-.36,2.2-2.4,3.63-4.66,3.43-.46-.04-.93-.06-1.4-.06-9.99,0-18.08,9.54-18.08,21.31s8.1,21.31,18.08,21.31c.47,0,.94-.02,1.4-.06,2.26-.2,4.29,1.23,4.66,3.43,5.71,34.42,23.14,63.9,47.18,82.43,3.16,2.43,4.74,6.38,4.21,10.33l-2.37,17.46c-1.68,12.4-8.29,22.65-17.22,26.1-58.65,22.86-108.59,73.7-141.49,141.26-3.66,7.51,1.7,16.26,10.05,16.26H422.85c8.35,0,13.7-8.75,10.05-16.26-32.89-67.56-82.83-118.4-141.49-141.26Z"/>
  <path class="cls-2" d="M798.18,782.85c-9.95-15.07-20.34-29.47-31.25-43.05-6.16-7.79-12.51-15.29-19.04-22.56-48.17-54.03-104.03-94.23-164.45-117.91-11.84-4.6-21.08-19.41-23.57-37.67l-4.6-34.18c48.47-34.37,82.46-90.55,94.01-155.61,23.27-.56,42.01-22.31,42.01-48.99s-18.74-48.43-42.01-48.99c-1-5.72-2.19-11.36-3.56-16.92-1.71-7.09-3.71-13.99-5.94-20.78-29.88-90.18-104.51-152.09-189.27-152.09s-159.43,61.9-189.27,152.09c-2.23,6.79-4.23,13.69-5.9,20.78-1.37,5.53-2.56,11.17-3.56,16.89h-.45c-23.71,0-43.01,22.01-43.01,49.03s19.3,49.03,43.01,49.03c.15,0,.3,0,.45-.04,11.28,63.61,44.2,119.06,91.07,153.5l-4.9,36.26c-2.49,18.3-11.73,33.1-23.6,37.71-82.76,32.47-157.02,95.94-214.69,183.52-3.34,5.08-1.97,11.95,3.08,15.29,1.86,1.26,3.97,1.86,6.05,1.86,3.56,0,7.05-1.74,9.17-4.94,55.15-83.8,125.85-144.37,204.38-175.13,19.45-7.61,33.77-28.76,37.37-55.3l6.68-49.69-5.6-3.86c-45.69-31.25-77.75-84.5-87.92-146.07-1.6-9.61-10.24-16.18-20-15.25-12.14,1.04-22.56-11.36-22.56-26.87s9.43-26.94,21.04-26.94c.52,0,1,.04,1.48,.07,9.8,.96,18.45-5.64,20.04-15.29,1.34-8.09,3.04-16.03,5.12-23.75,1.89-7.13,4.08-14.03,6.53-20.78,28.32-77.45,93-130,166-130s137.69,52.55,166,130c2.45,6.75,4.64,13.69,6.53,20.78,2.08,7.72,3.79,15.66,5.12,23.75,1.56,9.35,9.83,15.92,19.22,15.29,11.95-.85,21.97,11.65,21.97,26.87s-9.46,26.91-21.04,26.91c-.3,0-.63,0-.96-.04-9.35-.63-17.63,5.94-19.19,15.33-10.39,62.91-43.46,116.79-90.7,147.86l-5.79,3.82,6.46,47.88c3.6,26.53,17.93,47.69,37.37,55.3,57.3,22.45,110.45,60.75,156.35,112.41,5.98,6.64,11.76,13.55,17.44,20.63,10.65,13.29,20.86,27.31,30.58,42.08,3.34,5.08,10.17,6.46,15.22,3.08,5.05-3.34,6.42-10.21,3.08-15.29Z"/>
  <g>
    <path class="cls-2" d="M22.08,236.19c-12.2,0-22.08,9.89-22.08,22.08v472.96c0,12.06,9.8,21.9,21.9,21.9H94.64c5.07,0,9.84-3.32,10.85-8.29,.75-3.67-.53-7.1-2.83-9.45-1.89-1.89-4.49-3.04-7.35-3.04H21.9c-.63,0-1.11-.52-1.11-1.11V258.27c0-.72,.58-1.3,1.3-1.3H215.85c5.74,0,10.39-4.65,10.39-10.39h0c0-5.74-4.65-10.39-10.39-10.39H22.08Z"/>
    <path class="cls-2" d="M746.77,236.19h-53.66c-5.74,0-10.39,4.65-10.39,10.39h0c0,5.74,4.65,10.39,10.39,10.39h53.66c.59,0,1.11,.48,1.11,1.11v473.15c0,.61-.5,1.11-1.11,1.11H247.41c-6.07,0-11.39,4.98-11.02,11.04,.16,2.6,1.28,4.95,3.02,6.7,1.89,1.89,4.49,3.04,7.35,3.04h500.01c.85,0,1.71-.04,2.52-.15,7.98-.93,14.62-6.09,17.63-13.18,1.11-2.63,1.74-5.53,1.74-8.57V258.09c0-12.09-9.8-21.9-21.9-21.9Z"/>
  </g>
  <circle class="cls-2" cx="386.25" cy="689.69" r="17.29"/>
  <path class="cls-2" d="M488.1,799.23h-207.54c-5.31,0-9.61-4.3-9.61-9.61s4.3-9.61,9.61-9.61h207.54c5.31,0,9.61,4.3,9.61,9.61s-4.3,9.61-9.61,9.61Z"/>
</svg>