<?xml version="1.0" encoding="utf-8"?>
<!-- Generator: Adobe Illustrator 25.0.0, SVG Export Plug-In . SVG Version: 6.00 Build 0)  -->
<svg version="1.1" id="Layer_1" xmlns="http://www.w3.org/2000/svg" xmlns:xlink="http://www.w3.org/1999/xlink" x="0px" y="0px"
	 viewBox="0 0 460 500" style="enable-background:new 0 0 460 500;" xml:space="preserve">
<style type="text/css">
	.st0{fill:#4E91EF;}
	.st1{fill:#3563A2;}
	.st2{fill:#C6C6C6;}
	.st3{fill:#A3A3A3;}
	.st4{fill:#FFFFFF;}
	.st5{fill:#757575;}
	.st6{fill:#A8A8A8;}
	.st7{fill:#B9B9BA;}
	.st8{fill:#FCBC56;}
	.st9{fill:#E8AA58;}
	.st10{fill:#203C62;}
	.st11{fill:#2D5389;}
</style>
<g>
	<g>
		<g>
			<path class="st0" d="M295.3,333.3l-8.6-34.9c-1.4-5.7,1.1-11.5,6.1-14.7c26.1-16.6,46.5-43.3,57.2-75.3c2.6,0.8,5.3,1.3,8.2,1.3
				c17.7,0,32.1-17.6,32.1-39.3S375.8,131,358.1,131c-0.7,0-1.4,0-2.1,0.1C345,63.6,292.7,12.4,229.7,12.4S114.5,63.6,103.5,131.1
				c-0.7-0.1-1.4-0.1-2.1-0.1c-17.7,0-32.1,17.6-32.1,39.3s14.4,39.3,32.1,39.3c2.8,0,5.6-0.5,8.2-1.3
				c10.7,32.1,31.1,58.7,57.2,75.3c5,3.2,7.5,9,6.1,14.7l-8.6,34.9c-1.2,4.8-5,8.6-9.8,9.9C67.1,365.8,3.7,426.3,0.2,498.1h459
				c-3.5-71.9-66.9-132.4-154.2-154.9C300.2,342,296.4,338.2,295.3,333.3z"/>
		</g>
		<g>
			<path class="st1" d="M459.2,498.1h-231V12.4h1.5c62.9,0,115.3,51.1,126.2,118.6c0.7-0.1,1.4-0.1,2.1-0.1
				c17.7,0,32.1,17.6,32.1,39.4c0,21.7-14.4,39.3-32.1,39.3c-2.8,0-5.6-0.5-8.2-1.3c-10.7,32.1-31.1,58.7-57.2,75.4
				c-5,3.2-7.6,9-6.1,14.7l8.6,34.9c1.2,4.8,5,8.6,9.8,9.9C392.4,365.8,455.7,426.3,459.2,498.1z"/>
		</g>
	</g>
	<g>
		<path class="st2" d="M319.9,498.1H134.4c-9.5,0-17.1-7.7-17.1-17.1v-94.3c0-9.5,7.7-17.1,17.1-17.1h185.4
			c9.5,0,17.1,7.7,17.1,17.1V481C337,490.5,329.3,498.1,319.9,498.1z"/>
		<path class="st3" d="M337,379.2v109.3c0,5.3-4.4,9.6-9.8,9.6h-100V369.6h100C332.6,369.6,337,373.9,337,379.2z"/>
		<g>
			<rect x="127.9" y="380.3" class="st4" width="88" height="104.4"/>
			<g>
				<g>
					<path class="st0" d="M184.1,454.2l-1.6-6.5c-0.3-1.1,0.2-2.1,1.1-2.7c4.8-3.1,8.6-8,10.6-13.9c0.5,0.2,1,0.2,1.5,0.2
						c3.3,0,5.9-3.3,5.9-7.3c0-4-2.7-7.3-5.9-7.3c-0.1,0-0.3,0-0.4,0c-2-12.5-11.7-22-23.4-22s-21.3,9.5-23.4,22c-0.1,0-0.3,0-0.4,0
						c-3.3,0-5.9,3.3-5.9,7.3c0,4,2.7,7.3,5.9,7.3c0.5,0,1-0.1,1.5-0.2c2,5.9,5.8,10.9,10.6,13.9c0.9,0.6,1.4,1.7,1.1,2.7l-1.6,6.5
						c-0.2,0.9-0.9,1.6-1.8,1.8c-16.2,4.2-27.9,15.4-28.5,28.7h85c-0.6-13.3-12.4-24.5-28.5-28.7C185,455.8,184.3,455.1,184.1,454.2
						z"/>
				</g>
				<g>
					<path class="st1" d="M214.4,484.7h-42.8v-89.9h0.3c11.6,0,21.3,9.5,23.4,22c0.1,0,0.3,0,0.4,0c3.3,0,5.9,3.3,5.9,7.3
						c0,4-2.7,7.3-5.9,7.3c-0.5,0-1-0.1-1.5-0.2c-2,5.9-5.8,10.9-10.6,13.9c-0.9,0.6-1.4,1.7-1.1,2.7l1.6,6.5
						c0.2,0.9,0.9,1.6,1.8,1.8C202.1,460.2,213.8,471.4,214.4,484.7z"/>
				</g>
			</g>
		</g>
		<rect x="237.5" y="426.9" class="st4" width="89.2" height="11.2"/>
		<rect x="237.5" y="450.4" class="st4" width="89.2" height="11.2"/>
		<rect x="237.5" y="473.4" class="st4" width="89.2" height="11.2"/>
	</g>
</g>
</svg>
